<?xml version="1.0" encoding="iso-8859-1"?>
<!-- Uploaded to: SVG Repo, www.svgrepo.com, Generator: SVG Repo Mixer Tools -->
<svg fill="#000000" height="800px" width="800px" version="1.1" id="Layer_1" xmlns="http://www.w3.org/2000/svg" xmlns:xlink="http://www.w3.org/1999/xlink" 
	 viewBox="0 0 512 512" xml:space="preserve">
<g>
	<g>
		<g>
			<path d="M320.107,196.181c-9.173-12.224-11.136-27.947-10.773-36.181c0-16.043-17.728-28.587-42.667-31.403V10.667
				C266.667,4.779,261.888,0,256,0c-5.888,0-10.667,4.779-10.667,10.667v117.931c-24.939,2.816-42.667,15.403-42.667,31.893
				c0.363,7.787-1.6,23.467-10.773,35.691c-47.061,6.784-53.227,18.389-53.227,27.819c0,29.696,89.813,32,117.333,32
				s117.333-2.304,117.333-32C373.333,214.592,367.168,202.987,320.107,196.181z M245.333,202.667
				c0,5.888-4.779,10.667-10.667,10.667S224,208.555,224,202.667v-21.333c0-5.888,4.779-10.667,10.667-10.667
				s10.667,4.779,10.667,10.667V202.667z M288,202.667c0,5.888-4.779,10.667-10.667,10.667s-10.667-4.779-10.667-10.667v-21.333
				c0-5.888,4.779-10.667,10.667-10.667S288,175.445,288,181.333V202.667z"/>
			<path d="M325.653,268.288c-4.992-3.115-11.584-1.621-14.699,3.392l-41.941,67.093l-13.397-53.547
				c-1.173-4.693-5.333-8-10.176-8.085c-15.552-0.235-29.781-1.024-42.347-2.304c-3.413-0.405-6.869,1.003-9.152,3.627
				c-2.261,2.624-3.115,6.187-2.283,9.557l32,127.979l-20.672,82.752c-0.811,3.179-0.085,6.571,1.941,9.152
				c2.027,2.581,5.12,4.096,8.405,4.096h85.333c3.285,0,6.379-1.515,8.405-4.096c2.027-2.581,2.731-5.952,1.941-9.152
				l-32.811-131.243l52.843-84.544C332.16,277.995,330.645,271.424,325.653,268.288z"/>
		</g>
	</g>
</g>
</svg>